# xmcd
#
# Track frame offsets:
#	182
#	32107
#	75307
#	98182
#	125557
#	171232
#	191557
#
# Disc length: 3243
#
# Revision: 3
# Processed by: cddbd v1.5.1PL0 Copyright (c) Steve Scherf et al.
# Submitted via: audiograbber 1.81.03
# Normalized: r2:DSETVAR1
#
DISCID=530ca907
DTITLE=Various Artist - Spirit of Australia
DYEAR=1900
DGENRE=
TTITLE0=Vicki Hansen - Earth Heart
TTITLE1=Simon Lewis - Otway Spirits
TTITLE2=Ian Cameron Smith - Divine Embrace
TTITLE3=Malcolm Harrison - Kaleidoscope
TTITLE4=Chris Buckman - Pachelbel
TTITLE5=Ken Davis - I Believe
TTITLE6=Michael Wild - Eternal Calling
EXTD=
EXTT0=
EXTT1=
EXTT2=
EXTT3=
EXTT4=
EXTT5=
EXTT6=
PLAYORDER=
